<svg width="242" height="276" viewBox="0 0 242 276" fill="none" xmlns="http://www.w3.org/2000/svg">
<path d="M56.238 266.338C56.238 267.668 55.16 269.012 53.088 269.012C51.128 269.012 49.84 267.892 49.784 266.394H50.82C50.904 267.206 51.506 268.186 53.088 268.186C54.446 268.186 55.244 267.388 55.244 266.38C55.244 263.496 49.868 265.316 49.868 261.634C49.868 260.122 51.114 259.016 53.004 259.016C54.866 259.016 55.986 260.052 56.154 261.396H55.09C54.978 260.71 54.32 259.87 52.962 259.856C51.814 259.842 50.862 260.472 50.862 261.606C50.862 264.434 56.238 262.698 56.238 266.338ZM58.4117 266.842V262.096H57.3477V261.27H58.4117V259.352H59.4057V261.27H61.5057V262.096H59.4057V266.842C59.4057 267.78 59.7277 268.074 60.6097 268.074H61.5057V268.914H60.4557C59.1257 268.914 58.4117 268.368 58.4117 266.842ZM62.674 265.078C62.674 262.684 64.228 261.158 66.328 261.158C67.868 261.158 68.918 261.984 69.352 262.95V261.27H70.332V268.914H69.352V267.22C68.904 268.2 67.84 269.026 66.314 269.026C64.228 269.026 62.674 267.472 62.674 265.078ZM69.352 265.092C69.352 263.188 68.078 262.012 66.51 262.012C64.9 262.012 63.668 263.132 63.668 265.078C63.668 267.01 64.9 268.172 66.51 268.172C68.078 268.172 69.352 266.996 69.352 265.092ZM73.5492 264.644V268.914H72.5692V261.27H73.5492V262.628C73.9692 261.69 74.8512 261.13 76.1672 261.13V262.152H75.9012C74.6272 262.152 73.5492 262.726 73.5492 264.644ZM77.9215 266.842V262.096H76.8575V261.27H77.9215V259.352H78.9155V261.27H81.0155V262.096H78.9155V266.842C78.9155 267.78 79.2375 268.074 80.1195 268.074H81.0155V268.914H79.9655C78.6355 268.914 77.9215 268.368 77.9215 266.842ZM86.0255 265.078C86.0255 262.684 87.5795 261.158 89.6795 261.158C91.2195 261.158 92.2695 261.984 92.7035 262.95V261.27H93.6835V268.914H92.7035V267.22C92.2555 268.2 91.1915 269.026 89.6655 269.026C87.5795 269.026 86.0255 267.472 86.0255 265.078ZM92.7035 265.092C92.7035 263.188 91.4295 262.012 89.8615 262.012C88.2515 262.012 87.0195 263.132 87.0195 265.078C87.0195 267.01 88.2515 268.172 89.8615 268.172C91.4295 268.172 92.7035 266.996 92.7035 265.092ZM99.3146 264.014C99.3146 261.074 101.387 259.016 104.103 259.016C106.287 259.016 107.911 260.108 108.611 261.984H107.463C106.917 260.682 105.769 259.87 104.103 259.87C101.961 259.87 100.323 261.452 100.323 264.014C100.323 266.562 101.961 268.144 104.103 268.144C105.769 268.144 106.917 267.332 107.463 266.058H108.611C107.911 267.906 106.287 268.998 104.103 268.998C101.387 268.998 99.3146 266.954 99.3146 264.014ZM117.759 265.092C117.759 267.514 116.065 269.026 113.909 269.026C111.753 269.026 110.115 267.514 110.115 265.092C110.115 262.656 111.795 261.158 113.937 261.158C116.093 261.158 117.759 262.656 117.759 265.092ZM111.109 265.092C111.109 267.192 112.453 268.172 113.909 268.172C115.351 268.172 116.751 267.192 116.751 265.092C116.751 262.992 115.379 262.012 113.923 262.012C112.467 262.012 111.109 262.992 111.109 265.092ZM125.272 268.914V264.546C125.272 262.852 124.348 261.984 122.948 261.984C121.52 261.984 120.526 262.88 120.526 264.742V268.914H119.546V261.27H120.526V262.572C121.016 261.62 121.996 261.13 123.13 261.13C124.866 261.13 126.238 262.194 126.238 264.434V268.914H125.272ZM127.495 261.27H128.545L131.121 267.962L133.697 261.27H134.733L131.667 268.914H130.561L127.495 261.27ZM139.323 261.998C137.937 261.998 136.719 262.894 136.607 264.672H141.983C142.025 262.894 140.737 261.998 139.323 261.998ZM142.865 266.492C142.515 267.934 141.283 269.026 139.365 269.026C137.195 269.026 135.613 267.514 135.613 265.092C135.613 262.656 137.167 261.158 139.365 261.158C141.605 261.158 142.977 262.754 142.977 264.7C142.977 265.008 142.977 265.204 142.949 265.47H136.607C136.691 267.262 137.937 268.2 139.365 268.2C140.667 268.2 141.549 267.514 141.829 266.492H142.865ZM145.75 264.644V268.914H144.77V261.27H145.75V262.628C146.17 261.69 147.052 261.13 148.368 261.13V262.152H148.102C146.828 262.152 145.75 262.726 145.75 264.644ZM155.135 266.884C155.135 268.116 154.057 269.026 152.475 269.026C150.739 269.026 149.521 268.158 149.395 266.758H150.403C150.487 267.598 151.215 268.2 152.461 268.2C153.553 268.2 154.169 267.612 154.169 266.884C154.169 264.994 149.577 266.1 149.577 263.23C149.577 262.096 150.655 261.158 152.265 261.158C153.903 261.158 154.981 262.026 155.065 263.496H154.085C154.029 262.642 153.399 261.998 152.237 261.998C151.215 261.998 150.571 262.544 150.571 263.216C150.571 265.288 155.093 264.182 155.135 266.884ZM156.531 265.078C156.531 262.684 158.085 261.158 160.185 261.158C161.725 261.158 162.775 261.984 163.209 262.95V261.27H164.189V268.914H163.209V267.22C162.761 268.2 161.697 269.026 160.171 269.026C158.085 269.026 156.531 267.472 156.531 265.078ZM163.209 265.092C163.209 263.188 161.935 262.012 160.367 262.012C158.757 262.012 157.525 263.132 157.525 265.078C157.525 267.01 158.757 268.172 160.367 268.172C161.935 268.172 163.209 266.996 163.209 265.092ZM166.707 266.842V262.096H165.643V261.27H166.707V259.352H167.701V261.27H169.801V262.096H167.701V266.842C167.701 267.78 168.023 268.074 168.905 268.074H169.801V268.914H168.751C167.421 268.914 166.707 268.368 166.707 266.842ZM171.417 268.914V261.27H172.397V268.914H171.417ZM171.907 259.828C171.515 259.828 171.193 259.52 171.193 259.1C171.193 258.68 171.515 258.386 171.907 258.386C172.299 258.386 172.621 258.68 172.621 259.1C172.621 259.52 172.299 259.828 171.907 259.828ZM181.812 265.092C181.812 267.514 180.118 269.026 177.962 269.026C175.806 269.026 174.168 267.514 174.168 265.092C174.168 262.656 175.848 261.158 177.99 261.158C180.146 261.158 181.812 262.656 181.812 265.092ZM175.162 265.092C175.162 267.192 176.506 268.172 177.962 268.172C179.404 268.172 180.804 267.192 180.804 265.092C180.804 262.992 179.432 262.012 177.976 262.012C176.52 262.012 175.162 262.992 175.162 265.092ZM189.325 268.914V264.546C189.325 262.852 188.401 261.984 187.001 261.984C185.573 261.984 184.579 262.88 184.579 264.742V268.914H183.599V261.27H184.579V262.572C185.069 261.62 186.049 261.13 187.183 261.13C188.919 261.13 190.291 262.194 190.291 264.434V268.914H189.325Z" fill="black"/>
<path fill-rule="evenodd" clip-rule="evenodd" d="M151.048 217.22C119.244 224.865 85.0403 220.995 59.2574 200.974C34.2094 181.523 21.8434 149.726 23.3732 118.077C24.7599 89.3868 44.422 66.7138 66.6325 48.3938C88.1424 30.6516 114.969 11.5869 141.257 20.8417C165.892 29.5145 161.694 64.7032 175.596 86.7545C192.58 113.694 234.974 128.845 229.084 160.151C222.828 193.399 184.027 209.293 151.048 217.22Z" fill="#D9D9D9"/>
<path d="M96.0853 113.957H101.085V126.457H141.085V113.957H146.085V126.457C146.085 127.783 145.559 129.055 144.621 129.992C143.683 130.93 142.411 131.457 141.085 131.457H101.085C99.7592 131.457 98.4875 130.93 97.5498 129.992C96.6121 129.055 96.0853 127.783 96.0853 126.457V113.957Z" fill="#414141"/>
<path d="M79.7558 141.32V152.957H78.1421L72.2274 144.423H72.1194V152.957H70.3637V141.32H71.9887L77.9092 149.866H78.0171V141.32H79.7558ZM85.8566 153.133C85.0385 153.133 84.3244 152.945 83.7146 152.57C83.1047 152.195 82.6313 151.671 82.2941 150.997C81.957 150.322 81.7885 149.534 81.7885 148.633C81.7885 147.728 81.957 146.936 82.2941 146.258C82.6313 145.58 83.1047 145.053 83.7146 144.678C84.3244 144.303 85.0385 144.116 85.8566 144.116C86.6748 144.116 87.3888 144.303 87.9987 144.678C88.6085 145.053 89.082 145.58 89.4191 146.258C89.7563 146.936 89.9248 147.728 89.9248 148.633C89.9248 149.534 89.7563 150.322 89.4191 150.997C89.082 151.671 88.6085 152.195 87.9987 152.57C87.3888 152.945 86.6748 153.133 85.8566 153.133ZM85.8623 151.707C86.3926 151.707 86.832 151.567 87.1805 151.286C87.529 151.006 87.7866 150.633 87.9532 150.167C88.1237 149.701 88.2089 149.188 88.2089 148.627C88.2089 148.07 88.1237 147.559 87.9532 147.093C87.7866 146.624 87.529 146.247 87.1805 145.963C86.832 145.678 86.3926 145.536 85.8623 145.536C85.3282 145.536 84.885 145.678 84.5328 145.963C84.1843 146.247 83.9248 146.624 83.7544 147.093C83.5877 147.559 83.5044 148.07 83.5044 148.627C83.5044 149.188 83.5877 149.701 83.7544 150.167C83.9248 150.633 84.1843 151.006 84.5328 151.286C84.885 151.567 85.3282 151.707 85.8623 151.707ZM96.1919 141.32H98.3225L102.027 150.366H102.163L105.868 141.32H107.999V152.957H106.328V144.536H106.22L102.788 152.94H101.402L97.9703 144.531H97.8623V152.957H96.1919V141.32ZM114.176 153.133C113.316 153.133 112.576 152.949 111.955 152.582C111.337 152.211 110.86 151.69 110.523 151.019C110.189 150.345 110.023 149.555 110.023 148.65C110.023 147.756 110.189 146.968 110.523 146.286C110.86 145.605 111.33 145.072 111.932 144.69C112.538 144.307 113.246 144.116 114.057 144.116C114.549 144.116 115.027 144.197 115.489 144.36C115.951 144.523 116.366 144.779 116.733 145.127C117.1 145.476 117.39 145.928 117.602 146.485C117.814 147.038 117.921 147.711 117.921 148.502V149.105H110.983V147.832H116.256C116.256 147.385 116.165 146.989 115.983 146.644C115.801 146.296 115.546 146.021 115.216 145.82C114.89 145.62 114.508 145.519 114.068 145.519C113.591 145.519 113.174 145.637 112.818 145.872C112.466 146.103 112.193 146.406 112 146.781C111.811 147.152 111.716 147.555 111.716 147.991V148.985C111.716 149.569 111.818 150.065 112.023 150.474C112.231 150.883 112.521 151.195 112.892 151.411C113.263 151.624 113.697 151.73 114.193 151.73C114.515 151.73 114.809 151.684 115.074 151.593C115.339 151.499 115.568 151.358 115.761 151.173C115.955 150.987 116.102 150.758 116.205 150.485L117.813 150.775C117.684 151.249 117.453 151.663 117.119 152.019C116.79 152.372 116.375 152.646 115.875 152.843C115.379 153.036 114.813 153.133 114.176 153.133ZM126.345 146.36L124.805 146.633C124.741 146.436 124.639 146.249 124.499 146.07C124.362 145.892 124.177 145.747 123.942 145.633C123.707 145.519 123.413 145.463 123.061 145.463C122.58 145.463 122.179 145.57 121.857 145.786C121.535 145.999 121.374 146.273 121.374 146.61C121.374 146.902 121.482 147.137 121.698 147.315C121.913 147.493 122.262 147.639 122.743 147.752L124.129 148.07C124.932 148.256 125.531 148.542 125.925 148.928C126.319 149.315 126.516 149.817 126.516 150.434C126.516 150.957 126.364 151.423 126.061 151.832C125.762 152.237 125.343 152.555 124.805 152.786C124.271 153.017 123.652 153.133 122.948 153.133C121.97 153.133 121.173 152.925 120.555 152.508C119.938 152.088 119.559 151.491 119.419 150.718L121.061 150.468C121.163 150.896 121.374 151.22 121.692 151.44C122.01 151.656 122.425 151.764 122.936 151.764C123.493 151.764 123.938 151.648 124.271 151.417C124.605 151.182 124.771 150.896 124.771 150.559C124.771 150.286 124.669 150.057 124.465 149.872C124.264 149.686 123.955 149.546 123.538 149.451L122.061 149.127C121.247 148.942 120.645 148.646 120.254 148.241C119.868 147.836 119.675 147.322 119.675 146.701C119.675 146.186 119.819 145.735 120.107 145.349C120.395 144.963 120.792 144.661 121.3 144.445C121.807 144.226 122.389 144.116 123.044 144.116C123.987 144.116 124.73 144.32 125.271 144.73C125.813 145.135 126.171 145.678 126.345 146.36ZM134.923 146.36L133.384 146.633C133.319 146.436 133.217 146.249 133.077 146.07C132.94 145.892 132.755 145.747 132.52 145.633C132.285 145.519 131.992 145.463 131.639 145.463C131.158 145.463 130.757 145.57 130.435 145.786C130.113 145.999 129.952 146.273 129.952 146.61C129.952 146.902 130.06 147.137 130.276 147.315C130.492 147.493 130.84 147.639 131.321 147.752L132.707 148.07C133.511 148.256 134.109 148.542 134.503 148.928C134.897 149.315 135.094 149.817 135.094 150.434C135.094 150.957 134.942 151.423 134.639 151.832C134.34 152.237 133.922 152.555 133.384 152.786C132.85 153.017 132.23 153.133 131.526 153.133C130.548 153.133 129.751 152.925 129.134 152.508C128.516 152.088 128.137 151.491 127.997 150.718L129.639 150.468C129.742 150.896 129.952 151.22 130.27 151.44C130.588 151.656 131.003 151.764 131.514 151.764C132.071 151.764 132.516 151.648 132.85 151.417C133.183 151.182 133.35 150.896 133.35 150.559C133.35 150.286 133.247 150.057 133.043 149.872C132.842 149.686 132.533 149.546 132.117 149.451L130.639 149.127C129.825 148.942 129.223 148.646 128.832 148.241C128.446 147.836 128.253 147.322 128.253 146.701C128.253 146.186 128.397 145.735 128.685 145.349C128.973 144.963 129.37 144.661 129.878 144.445C130.386 144.226 130.967 144.116 131.622 144.116C132.565 144.116 133.308 144.32 133.85 144.73C134.391 145.135 134.749 145.678 134.923 146.36ZM139.502 153.15C138.948 153.15 138.448 153.048 138.002 152.843C137.555 152.635 137.2 152.334 136.939 151.94C136.681 151.546 136.553 151.063 136.553 150.491C136.553 149.999 136.647 149.593 136.837 149.275C137.026 148.957 137.282 148.705 137.604 148.519C137.926 148.334 138.286 148.194 138.683 148.099C139.081 148.004 139.486 147.932 139.899 147.883C140.422 147.822 140.846 147.773 141.172 147.735C141.498 147.694 141.734 147.627 141.882 147.536C142.03 147.445 142.104 147.298 142.104 147.093V147.053C142.104 146.557 141.964 146.173 141.683 145.9C141.407 145.627 140.994 145.491 140.445 145.491C139.873 145.491 139.422 145.618 139.092 145.872C138.767 146.122 138.541 146.4 138.416 146.707L136.82 146.343C137.009 145.813 137.286 145.385 137.649 145.059C138.017 144.73 138.439 144.491 138.916 144.343C139.394 144.192 139.895 144.116 140.422 144.116C140.77 144.116 141.14 144.158 141.53 144.241C141.924 144.32 142.291 144.468 142.632 144.684C142.977 144.9 143.259 145.209 143.479 145.61C143.698 146.008 143.808 146.525 143.808 147.161V152.957H142.149V151.764H142.081C141.971 151.983 141.806 152.199 141.587 152.411C141.367 152.624 141.085 152.8 140.74 152.94C140.395 153.08 139.983 153.15 139.502 153.15ZM139.871 151.786C140.341 151.786 140.742 151.694 141.075 151.508C141.413 151.322 141.668 151.08 141.842 150.781C142.02 150.478 142.109 150.154 142.109 149.809V148.684C142.049 148.745 141.931 148.802 141.757 148.855C141.587 148.904 141.392 148.947 141.172 148.985C140.952 149.019 140.738 149.052 140.53 149.082C140.322 149.108 140.147 149.131 140.007 149.15C139.678 149.192 139.377 149.262 139.104 149.36C138.835 149.459 138.619 149.601 138.456 149.786C138.297 149.968 138.217 150.211 138.217 150.514C138.217 150.934 138.373 151.252 138.683 151.468C138.994 151.68 139.39 151.786 139.871 151.786ZM149.73 156.411C149.037 156.411 148.44 156.32 147.94 156.139C147.444 155.957 147.039 155.716 146.725 155.417C146.41 155.118 146.175 154.79 146.02 154.434L147.48 153.832C147.582 153.999 147.719 154.175 147.889 154.36C148.064 154.55 148.298 154.711 148.594 154.843C148.893 154.976 149.278 155.042 149.747 155.042C150.391 155.042 150.923 154.885 151.344 154.57C151.764 154.26 151.975 153.764 151.975 153.082V151.366H151.867C151.764 151.552 151.617 151.758 151.423 151.985C151.234 152.213 150.973 152.409 150.639 152.576C150.306 152.743 149.872 152.826 149.338 152.826C148.649 152.826 148.028 152.665 147.475 152.343C146.925 152.017 146.49 151.538 146.168 150.906C145.85 150.269 145.69 149.487 145.69 148.559C145.69 147.631 145.848 146.836 146.162 146.173C146.48 145.51 146.916 145.002 147.469 144.65C148.022 144.294 148.649 144.116 149.35 144.116C149.891 144.116 150.329 144.207 150.662 144.389C150.995 144.567 151.255 144.775 151.44 145.014C151.63 145.252 151.776 145.463 151.878 145.644H152.003V144.23H153.668V153.15C153.668 153.9 153.493 154.516 153.145 154.997C152.797 155.478 152.325 155.834 151.73 156.065C151.139 156.296 150.473 156.411 149.73 156.411ZM149.713 151.417C150.202 151.417 150.615 151.303 150.952 151.076C151.293 150.845 151.55 150.516 151.725 150.088C151.903 149.656 151.992 149.139 151.992 148.536C151.992 147.949 151.904 147.432 151.73 146.985C151.556 146.538 151.3 146.19 150.963 145.94C150.626 145.686 150.209 145.559 149.713 145.559C149.202 145.559 148.776 145.692 148.435 145.957C148.094 146.218 147.836 146.574 147.662 147.025C147.492 147.476 147.406 147.98 147.406 148.536C147.406 149.108 147.493 149.61 147.668 150.042C147.842 150.474 148.1 150.811 148.44 151.053C148.785 151.296 149.209 151.417 149.713 151.417ZM159.707 153.133C158.848 153.133 158.107 152.949 157.486 152.582C156.868 152.211 156.391 151.69 156.054 151.019C155.721 150.345 155.554 149.555 155.554 148.65C155.554 147.756 155.721 146.968 156.054 146.286C156.391 145.605 156.861 145.072 157.463 144.69C158.069 144.307 158.778 144.116 159.588 144.116C160.081 144.116 160.558 144.197 161.02 144.36C161.482 144.523 161.897 144.779 162.264 145.127C162.632 145.476 162.922 145.928 163.134 146.485C163.346 147.038 163.452 147.711 163.452 148.502V149.105H156.514V147.832H161.787C161.787 147.385 161.696 146.989 161.514 146.644C161.332 146.296 161.077 146.021 160.747 145.82C160.422 145.62 160.039 145.519 159.6 145.519C159.122 145.519 158.706 145.637 158.35 145.872C157.997 146.103 157.725 146.406 157.531 146.781C157.342 147.152 157.247 147.555 157.247 147.991V148.985C157.247 149.569 157.35 150.065 157.554 150.474C157.762 150.883 158.052 151.195 158.423 151.411C158.795 151.624 159.228 151.73 159.725 151.73C160.047 151.73 160.34 151.684 160.605 151.593C160.87 151.499 161.1 151.358 161.293 151.173C161.486 150.987 161.634 150.758 161.736 150.485L163.344 150.775C163.215 151.249 162.984 151.663 162.651 152.019C162.321 152.372 161.906 152.646 161.406 152.843C160.91 153.036 160.344 153.133 159.707 153.133ZM171.877 146.36L170.337 146.633C170.272 146.436 170.17 146.249 170.03 146.07C169.894 145.892 169.708 145.747 169.473 145.633C169.238 145.519 168.945 145.463 168.592 145.463C168.111 145.463 167.71 145.57 167.388 145.786C167.066 145.999 166.905 146.273 166.905 146.61C166.905 146.902 167.013 147.137 167.229 147.315C167.445 147.493 167.793 147.639 168.274 147.752L169.661 148.07C170.464 148.256 171.062 148.542 171.456 148.928C171.85 149.315 172.047 149.817 172.047 150.434C172.047 150.957 171.895 151.423 171.592 151.832C171.293 152.237 170.875 152.555 170.337 152.786C169.803 153.017 169.183 153.133 168.479 153.133C167.502 153.133 166.704 152.925 166.087 152.508C165.469 152.088 165.091 151.491 164.95 150.718L166.592 150.468C166.695 150.896 166.905 151.22 167.223 151.44C167.541 151.656 167.956 151.764 168.467 151.764C169.024 151.764 169.469 151.648 169.803 151.417C170.136 151.182 170.303 150.896 170.303 150.559C170.303 150.286 170.2 150.057 169.996 149.872C169.795 149.686 169.486 149.546 169.07 149.451L167.592 149.127C166.778 148.942 166.176 148.646 165.786 148.241C165.399 147.836 165.206 147.322 165.206 146.701C165.206 146.186 165.35 145.735 165.638 145.349C165.926 144.963 166.323 144.661 166.831 144.445C167.339 144.226 167.92 144.116 168.575 144.116C169.519 144.116 170.261 144.32 170.803 144.73C171.344 145.135 171.702 145.678 171.877 146.36Z" fill="#414141"/>
</svg>
